<mxfile host="65bd71144e">
    <diagram id="ueoeoGH1F4XLIX-ExMUr" name="Page-1">
        <mxGraphModel dx="1068" dy="802" grid="1" gridSize="10" guides="1" tooltips="1" connect="1" arrows="1" fold="1" page="1" pageScale="1" pageWidth="850" pageHeight="1100" math="0" shadow="0">
            <root>
                <mxCell id="0"/>
                <mxCell id="1" parent="0"/>
                <mxCell id="2" value="" style="rounded=0;whiteSpace=wrap;html=1;" vertex="1" parent="1">
                    <mxGeometry x="40" y="70" width="120" height="250" as="geometry"/>
                </mxCell>
                <mxCell id="4" value="login" style="rounded=1;whiteSpace=wrap;html=1;strokeWidth=2;fillWeight=4;hachureGap=8;hachureAngle=45;fillColor=#1ba1e2;sketch=1;" vertex="1" parent="1">
                    <mxGeometry x="70" y="200" width="60" height="20" as="geometry"/>
                </mxCell>
                <mxCell id="5" value="password" style="rounded=1;whiteSpace=wrap;html=1;" vertex="1" parent="1">
                    <mxGeometry x="60" y="170" width="80" height="20" as="geometry"/>
                </mxCell>
                <mxCell id="6" value="user name" style="rounded=1;whiteSpace=wrap;html=1;" vertex="1" parent="1">
                    <mxGeometry x="60" y="140" width="80" height="20" as="geometry"/>
                </mxCell>
                <mxCell id="7" value="login" style="text;html=1;align=center;verticalAlign=middle;resizable=0;points=[];autosize=1;strokeColor=none;fillColor=none;" vertex="1" parent="1">
                    <mxGeometry x="75" y="40" width="50" height="30" as="geometry"/>
                </mxCell>
                <mxCell id="8" value="" style="rounded=0;whiteSpace=wrap;html=1;" vertex="1" parent="1">
                    <mxGeometry x="220" y="70" width="120" height="250" as="geometry"/>
                </mxCell>
                <mxCell id="9" value="Sign up" style="text;html=1;align=center;verticalAlign=middle;resizable=0;points=[];autosize=1;strokeColor=none;fillColor=none;" vertex="1" parent="1">
                    <mxGeometry x="250" y="45" width="60" height="30" as="geometry"/>
                </mxCell>
                <mxCell id="13" style="edgeStyle=none;html=1;" edge="1" parent="1">
                    <mxGeometry relative="1" as="geometry">
                        <mxPoint x="520" y="420" as="targetPoint"/>
                        <mxPoint x="520" y="420" as="sourcePoint"/>
                    </mxGeometry>
                </mxCell>
                <mxCell id="22" value="" style="edgeStyle=none;html=1;" edge="1" parent="1" source="11" target="21">
                    <mxGeometry relative="1" as="geometry"/>
                </mxCell>
                <mxCell id="11" value="confirm pass" style="rounded=0;whiteSpace=wrap;html=1;" vertex="1" parent="1">
                    <mxGeometry x="240" y="210" width="80" height="20" as="geometry"/>
                </mxCell>
                <mxCell id="24" value="" style="edgeStyle=none;html=1;" edge="1" parent="1" source="21" target="23">
                    <mxGeometry relative="1" as="geometry"/>
                </mxCell>
                <mxCell id="21" value="password" style="rounded=0;whiteSpace=wrap;html=1;" vertex="1" parent="1">
                    <mxGeometry x="240" y="180" width="80" height="20" as="geometry"/>
                </mxCell>
                <mxCell id="26" value="" style="edgeStyle=none;html=1;" edge="1" parent="1" source="23" target="25">
                    <mxGeometry relative="1" as="geometry"/>
                </mxCell>
                <mxCell id="23" value="confirm email" style="rounded=0;whiteSpace=wrap;html=1;" vertex="1" parent="1">
                    <mxGeometry x="240" y="150" width="80" height="20" as="geometry"/>
                </mxCell>
                <mxCell id="25" value="email or phone" style="rounded=0;whiteSpace=wrap;html=1;" vertex="1" parent="1">
                    <mxGeometry x="240" y="120" width="80" height="20" as="geometry"/>
                </mxCell>
                <mxCell id="27" value="sign up" style="rounded=1;whiteSpace=wrap;html=1;strokeWidth=2;fillWeight=4;hachureGap=8;hachureAngle=45;fillColor=#1ba1e2;sketch=1;" vertex="1" parent="1">
                    <mxGeometry x="245" y="270" width="70" height="20" as="geometry"/>
                </mxCell>
                <mxCell id="28" value="Home screen" style="rounded=0;whiteSpace=wrap;html=1;" vertex="1" parent="1">
                    <mxGeometry x="410" y="70" width="120" height="250" as="geometry"/>
                </mxCell>
                <mxCell id="29" value="" style="rounded=1;whiteSpace=wrap;html=1;" vertex="1" parent="1">
                    <mxGeometry x="410" y="280" width="120" height="40" as="geometry"/>
                </mxCell>
                <mxCell id="32" value="" style="edgeStyle=none;html=1;" edge="1" parent="1" source="30" target="31">
                    <mxGeometry relative="1" as="geometry"/>
                </mxCell>
                <mxCell id="30" value="" style="ellipse;shape=doubleEllipse;whiteSpace=wrap;html=1;aspect=fixed;" vertex="1" parent="1">
                    <mxGeometry x="425" y="290" width="20" height="20" as="geometry"/>
                </mxCell>
                <mxCell id="34" value="" style="edgeStyle=none;html=1;" edge="1" parent="1" source="31" target="33">
                    <mxGeometry relative="1" as="geometry"/>
                </mxCell>
                <mxCell id="31" value="" style="ellipse;shape=doubleEllipse;whiteSpace=wrap;html=1;aspect=fixed;" vertex="1" parent="1">
                    <mxGeometry x="460" y="290" width="20" height="20" as="geometry"/>
                </mxCell>
                <mxCell id="33" value="" style="ellipse;shape=doubleEllipse;whiteSpace=wrap;html=1;aspect=fixed;" vertex="1" parent="1">
                    <mxGeometry x="500" y="290" width="20" height="20" as="geometry"/>
                </mxCell>
                <mxCell id="35" value="" style="endArrow=classic;html=1;" edge="1" parent="1" source="29">
                    <mxGeometry width="50" height="50" relative="1" as="geometry">
                        <mxPoint x="490" y="430" as="sourcePoint"/>
                        <mxPoint x="460" y="370" as="targetPoint"/>
                        <Array as="points">
                            <mxPoint x="460" y="370"/>
                        </Array>
                    </mxGeometry>
                </mxCell>
                <mxCell id="36" value="nav items for home, schedule, profile" style="shape=callout;whiteSpace=wrap;html=1;perimeter=calloutPerimeter;direction=west;" vertex="1" parent="1">
                    <mxGeometry x="400" y="370" width="120" height="80" as="geometry"/>
                </mxCell>
                <mxCell id="37" value="player&amp;nbsp;" style="text;html=1;align=center;verticalAlign=middle;resizable=0;points=[];autosize=1;strokeColor=none;fillColor=none;" vertex="1" parent="1">
                    <mxGeometry x="440" y="40" width="60" height="30" as="geometry"/>
                </mxCell>
                <mxCell id="38" value="Home Screen" style="rounded=0;whiteSpace=wrap;html=1;" vertex="1" parent="1">
                    <mxGeometry x="590" y="65" width="120" height="250" as="geometry"/>
                </mxCell>
                <mxCell id="40" value="" style="rounded=1;whiteSpace=wrap;html=1;" vertex="1" parent="1">
                    <mxGeometry x="590" y="285" width="120" height="30" as="geometry"/>
                </mxCell>
                <mxCell id="55" value="" style="group;rotation=180;" vertex="1" connectable="0" parent="1">
                    <mxGeometry x="610" y="295" width="80" height="10" as="geometry"/>
                </mxCell>
                <mxCell id="43" value="" style="ellipse;whiteSpace=wrap;html=1;aspect=fixed;" vertex="1" parent="55">
                    <mxGeometry width="10" height="10" as="geometry"/>
                </mxCell>
                <mxCell id="46" value="" style="ellipse;whiteSpace=wrap;html=1;aspect=fixed;" vertex="1" parent="55">
                    <mxGeometry x="20" width="10" height="10" as="geometry"/>
                </mxCell>
                <mxCell id="47" value="" style="edgeStyle=none;html=1;" edge="1" parent="55" source="43" target="46">
                    <mxGeometry relative="1" as="geometry"/>
                </mxCell>
                <mxCell id="48" value="" style="ellipse;whiteSpace=wrap;html=1;aspect=fixed;" vertex="1" parent="55">
                    <mxGeometry x="45" width="10" height="10" as="geometry"/>
                </mxCell>
                <mxCell id="49" value="" style="edgeStyle=none;html=1;" edge="1" parent="55" source="46" target="48">
                    <mxGeometry relative="1" as="geometry"/>
                </mxCell>
                <mxCell id="50" value="" style="ellipse;whiteSpace=wrap;html=1;aspect=fixed;" vertex="1" parent="55">
                    <mxGeometry x="70" width="10" height="10" as="geometry"/>
                </mxCell>
                <mxCell id="51" value="" style="edgeStyle=none;html=1;" edge="1" parent="55" source="48" target="50">
                    <mxGeometry relative="1" as="geometry"/>
                </mxCell>
                <mxCell id="56" value="" style="endArrow=classic;html=1;" edge="1" parent="1">
                    <mxGeometry width="50" height="50" relative="1" as="geometry">
                        <mxPoint x="490" y="440" as="sourcePoint"/>
                        <mxPoint x="540" y="390" as="targetPoint"/>
                    </mxGeometry>
                </mxCell>
                <mxCell id="57" value="" style="endArrow=classic;html=1;" edge="1" parent="1">
                    <mxGeometry width="50" height="50" relative="1" as="geometry">
                        <mxPoint x="645" y="315" as="sourcePoint"/>
                        <mxPoint x="630" y="365" as="targetPoint"/>
                    </mxGeometry>
                </mxCell>
                <mxCell id="58" value="home,schedule, selection, profile" style="shape=callout;whiteSpace=wrap;html=1;perimeter=calloutPerimeter;position2=0.42;direction=west;" vertex="1" parent="1">
                    <mxGeometry x="560" y="370" width="120" height="80" as="geometry"/>
                </mxCell>
                <mxCell id="60" value="selector&amp;nbsp;" style="text;html=1;align=center;verticalAlign=middle;resizable=0;points=[];autosize=1;strokeColor=none;fillColor=none;" vertex="1" parent="1">
                    <mxGeometry x="605" y="35" width="70" height="30" as="geometry"/>
                </mxCell>
                <mxCell id="61" value="" style="rounded=0;whiteSpace=wrap;html=1;" vertex="1" parent="1">
                    <mxGeometry x="50" y="450" width="120" height="260" as="geometry"/>
                </mxCell>
                <mxCell id="64" value="" style="edgeStyle=none;html=1;" edge="1" parent="1" source="62" target="63">
                    <mxGeometry relative="1" as="geometry"/>
                </mxCell>
                <mxCell id="62" value="" style="rounded=1;whiteSpace=wrap;html=1;" vertex="1" parent="1">
                    <mxGeometry x="70" y="490" width="75" height="30" as="geometry"/>
                </mxCell>
                <mxCell id="66" value="" style="edgeStyle=none;html=1;" edge="1" parent="1" source="63" target="65">
                    <mxGeometry relative="1" as="geometry"/>
                </mxCell>
                <mxCell id="63" value="" style="rounded=1;whiteSpace=wrap;html=1;" vertex="1" parent="1">
                    <mxGeometry x="70" y="535" width="75" height="30" as="geometry"/>
                </mxCell>
                <mxCell id="68" value="" style="edgeStyle=none;html=1;" edge="1" parent="1" source="65" target="67">
                    <mxGeometry relative="1" as="geometry"/>
                </mxCell>
                <mxCell id="65" value="" style="rounded=1;whiteSpace=wrap;html=1;" vertex="1" parent="1">
                    <mxGeometry x="70" y="580" width="75" height="30" as="geometry"/>
                </mxCell>
                <mxCell id="70" value="" style="edgeStyle=none;html=1;" edge="1" parent="1" source="67" target="69">
                    <mxGeometry relative="1" as="geometry"/>
                </mxCell>
                <mxCell id="67" value="" style="rounded=1;whiteSpace=wrap;html=1;" vertex="1" parent="1">
                    <mxGeometry x="70" y="630" width="75" height="30" as="geometry"/>
                </mxCell>
                <mxCell id="69" value="" style="rounded=1;whiteSpace=wrap;html=1;" vertex="1" parent="1">
                    <mxGeometry x="70" y="680" width="75" height="30" as="geometry"/>
                </mxCell>
                <mxCell id="72" value="schedule" style="text;html=1;align=center;verticalAlign=middle;resizable=0;points=[];autosize=1;strokeColor=none;fillColor=none;" vertex="1" parent="1">
                    <mxGeometry x="75" y="425" width="70" height="30" as="geometry"/>
                </mxCell>
                <mxCell id="73" value="Player profile&lt;br&gt;Name, email, password, picture may be" style="rounded=0;whiteSpace=wrap;html=1;" vertex="1" parent="1">
                    <mxGeometry x="220" y="450" width="120" height="250" as="geometry"/>
                </mxCell>
                <mxCell id="74" value="Profile" style="text;html=1;align=center;verticalAlign=middle;resizable=0;points=[];autosize=1;strokeColor=none;fillColor=none;" vertex="1" parent="1">
                    <mxGeometry x="240" y="420" width="60" height="30" as="geometry"/>
                </mxCell>
            </root>
        </mxGraphModel>
    </diagram>
</mxfile>